<?xml version="1.0" standalone="no"?>
<!DOCTYPE svg PUBLIC "-//W3C//DTD SVG 20010904//EN"
 "http://www.w3.org/TR/2001/REC-SVG-20010904/DTD/svg10.dtd">
<svg version="1.0" xmlns="http://www.w3.org/2000/svg"
 width="500.000000pt" height="500.000000pt" viewBox="0 0 500.000000 500.000000"
 preserveAspectRatio="xMidYMid meet">

<g transform="translate(0.000000,500.000000) scale(0.100000,-0.100000)"
fill="#000000" stroke="none">
<path d="M0 2500 l0 -2500 2500 0 2500 0 0 2500 0 2500 -2500 0 -2500 0 0
-2500z m3032 1082 c304 -154 344 -180 357 -229 22 -84 41 -169 41 -191 0 -20
-3 -21 -20 -12 -11 6 -22 23 -25 38 -22 104 -40 156 -64 179 -26 26 -201 122
-419 230 l-113 57 -52 -13 c-77 -20 -214 -93 -290 -156 -71 -59 -164 -169
-229 -272 -35 -55 -42 -61 -59 -53 -10 6 -19 14 -19 18 0 16 101 162 157 228
76 88 173 162 280 215 88 43 179 78 204 79 9 0 122 -53 251 -118z m-1272 -432
c11 0 31 -10 45 -23 l26 -22 -24 -23 c-23 -22 -28 -23 -66 -11 -54 16 -101 -4
-124 -54 -23 -47 -21 -64 8 -92 26 -26 91 -35 111 -15 7 7 18 2 34 -15 21 -22
22 -27 9 -39 -19 -18 -75 -36 -111 -36 -84 0 -138 59 -138 151 0 46 5 63 30
97 40 56 123 98 168 86 8 -2 22 -4 32 -4z m708 -16 c27 -18 28 -35 2 -59 -18
-16 -24 -17 -59 -5 -51 16 -89 4 -118 -40 -30 -43 -29 -75 3 -107 23 -23 31
-25 79 -20 45 5 56 2 72 -15 17 -19 17 -20 -2 -34 -24 -18 -81 -34 -120 -34
-74 0 -144 90 -130 169 21 126 173 207 273 145z m678 -49 c-2 -8 -17 -15 -32
-17 -27 -3 -28 -6 -48 -118 l-21 -115 -37 -3 c-21 -2 -38 0 -38 5 0 4 9 55 19
113 10 58 17 108 14 113 -2 4 -13 7 -24 7 -15 0 -19 7 -19 35 l0 34 93 3 c90
3 92 2 95 -20 2 -13 1 -30 -2 -37z m220 46 c58 -26 87 -72 92 -143 4 -50 1
-64 -22 -98 l-26 -40 32 -1 c29 -1 28 -2 -12 -10 -89 -15 -147 -11 -170 13
-42 46 -8 137 52 138 l23 1 -25 14 c-14 8 -44 14 -67 15 -77 0 -130 -74 -112
-159 l7 -33 -21 20 c-37 37 -30 105 20 189 63 106 137 136 229 94z m-1446
-143 l-26 -153 -37 -3 c-44 -4 -44 -3 -22 119 38 204 32 189 74 189 l37 0 -26
-152z m228 129 c43 -45 34 -128 -15 -156 -17 -9 -16 -14 10 -65 15 -31 27 -59
27 -61 0 -3 -20 -5 -45 -5 -44 0 -46 1 -68 46 l-22 46 -10 -44 c-10 -40 -13
-43 -48 -46 -20 -2 -37 0 -37 5 0 4 9 58 20 118 11 61 23 127 26 148 l7 37 67
0 c56 0 70 -3 88 -23z m459 -4 c-3 -16 -11 -63 -18 -107 -13 -74 -12 -79 6
-92 10 -8 29 -14 42 -14 42 0 59 31 78 139 l18 101 39 0 c21 0 38 -3 38 -7 0
-5 -9 -55 -20 -113 -22 -112 -37 -141 -91 -178 -65 -45 -162 -15 -191 58 -7
18 -5 56 8 133 l18 107 39 0 c38 0 39 -1 34 -27z m323 15 c0 -7 -11 -74 -25
-148 -14 -74 -25 -138 -25 -142 0 -5 -19 -8 -41 -8 -37 0 -41 2 -36 21 3 12
16 82 29 155 l23 134 37 0 c24 0 38 -5 38 -12z m470 -342 c0 -36 -20 -66 -44
-66 -23 0 -24 2 -14 35 10 30 20 39 51 44 4 0 7 -5 7 -13z m-1406 -18 c-9 -30
-39 -85 -68 -125 -13 -17 -28 -55 -34 -85 -6 -29 -18 -71 -28 -93 -16 -40 -17
-40 -26 -15 -14 37 -5 74 47 190 26 58 51 115 56 128 6 15 17 22 34 22 23 0
25 -3 19 -22z m141 -82 c30 -13 65 -58 65 -84 0 -5 -11 -14 -25 -20 -22 -10
-26 -9 -40 17 -25 50 -73 55 -116 12 -31 -31 -39 -80 -16 -98 6 -6 33 -18 58
-27 108 -41 140 -131 77 -219 -24 -33 -89 -66 -131 -67 -61 0 -123 60 -115
113 4 31 58 38 58 8 0 -26 37 -61 64 -61 33 0 85 37 92 65 13 51 -2 71 -79
108 -75 36 -97 61 -97 113 0 41 26 90 61 117 52 38 91 45 144 23z m1205 -32
c0 -19 -12 -58 -26 -87 -46 -94 -149 -257 -159 -254 -23 8 -12 41 54 157 39
68 80 147 92 177 23 58 39 61 39 7z m-2281 -144 c29 -90 53 -166 55 -168 4 -3
69 90 175 251 35 53 66 95 69 92 6 -5 31 -344 32 -422 0 -41 -2 -43 -29 -43
-28 0 -28 1 -35 77 -3 42 -6 104 -6 139 0 35 -4 65 -9 69 -5 3 -54 -61 -109
-142 -54 -82 -103 -147 -108 -146 -5 1 -31 70 -58 155 -38 120 -50 149 -57
133 -5 -11 -33 -78 -63 -150 -52 -126 -55 -130 -86 -133 -18 -2 -31 1 -29 6
77 192 194 461 200 455 4 -4 30 -82 58 -173z m699 73 c18 -60 49 -165 71 -235
l38 -128 -33 0 c-32 0 -34 3 -45 45 l-11 45 -129 0 c-73 0 -129 -4 -129 -9 0
-5 -10 -25 -22 -45 -19 -28 -29 -35 -56 -36 -19 0 -32 4 -30 8 8 20 304 462
309 462 3 0 20 -48 37 -107z m760 70 c-3 -26 -7 -28 -55 -31 -29 -2 -53 -4
-53 -5 0 -7 -52 -300 -61 -344 -10 -50 -12 -53 -40 -53 -25 0 -29 3 -24 23 7
34 65 361 65 370 0 4 -22 7 -50 7 -51 0 -58 7 -44 44 5 13 27 16 136 16 l129
0 -3 -27z m300 0 l-3 -28 -97 -3 -96 -3 -11 -63 c-6 -34 -11 -66 -11 -69 0 -4
36 -7 80 -7 70 0 80 -2 80 -17 0 -35 -15 -42 -95 -45 l-80 -3 -11 -67 -11 -68
94 0 94 0 -18 -30 -17 -30 -112 0 -112 0 8 38 c4 20 22 124 41 230 l33 192
123 0 124 0 -3 -27z m254 16 c13 -5 33 -25 46 -43 46 -67 19 -169 -56 -205
-23 -11 -31 -21 -28 -34 4 -15 0 -18 -17 -13 -71 17 -108 18 -120 3 -7 -9 -24
-19 -38 -22 l-26 -7 13 74 c7 40 20 111 28 158 9 47 16 88 16 93 0 11 156 8
182 -4z m377 -26 c5 -21 22 -93 38 -160 15 -68 30 -123 33 -123 3 1 47 72 98
160 88 151 96 160 124 160 22 0 29 -4 25 -15 -3 -7 -50 -87 -103 -177 -173
-290 -167 -282 -176 -262 -9 22 -108 430 -108 444 0 6 13 10 30 10 25 0 30 -5
39 -37z m426 15 c-7 -32 -75 -419 -75 -429 0 -5 -13 -9 -30 -9 -16 0 -30 4
-30 8 0 10 68 399 75 430 4 17 12 22 35 22 26 0 30 -3 25 -22z m254 9 c63 -32
86 -110 51 -181 -29 -61 -77 -90 -160 -96 l-65 -5 -14 -82 c-14 -81 -15 -83
-42 -83 -16 0 -29 5 -29 11 0 12 66 388 75 427 5 20 11 22 83 22 42 0 88 -6
101 -13z m-1061 -327 c63 -38 93 -122 72 -200 -13 -49 -78 -123 -130 -150 -20
-10 -62 -25 -94 -33 -32 -9 -60 -17 -62 -20 -7 -7 39 -131 61 -167 12 -19 32
-43 43 -53 26 -24 97 -34 117 -17 9 7 18 10 22 6 12 -12 -14 -28 -55 -33 -77
-10 -136 50 -182 183 -11 32 -24 62 -28 66 -4 4 -23 -20 -42 -54 -18 -34 -35
-57 -37 -51 -2 6 10 36 27 66 l31 55 -55 16 c-63 19 -92 50 -82 90 14 55 83
43 125 -20 l29 -44 21 36 c12 20 28 52 36 70 8 19 19 34 24 34 12 0 7 -13 -37
-99 l-34 -64 39 8 c142 26 239 107 251 210 15 136 -123 213 -261 146 -55 -27
-133 -109 -142 -151 -4 -17 -11 -30 -16 -30 -28 0 38 119 86 156 65 49 105 64
175 64 47 0 74 -5 98 -20z m-24 -25 c19 -9 40 -30 49 -51 22 -45 22 -44 -16
-44 -29 0 -36 5 -55 45 -34 69 -31 75 22 50z m-168 -61 c-6 -30 -11 -34 -36
-34 -31 0 -35 9 -21 44 9 22 54 49 60 35 1 -6 0 -26 -3 -45z m-1142 -10 c23
-23 20 -37 -29 -142 -25 -52 -45 -96 -45 -98 0 -2 54 -4 119 -4 69 0 122 -4
126 -10 4 -6 -41 -10 -127 -11 l-133 0 -65 -111 c-72 -122 -120 -192 -127
-184 -3 3 24 66 61 140 36 75 66 140 66 146 0 5 -22 10 -50 10 -54 0 -65 14
-25 32 20 9 34 9 59 0 64 -23 69 -20 120 87 52 109 55 134 15 139 -35 4 -161
-41 -227 -81 -195 -117 -279 -256 -174 -287 49 -15 142 13 157 48 5 12 13 22
18 22 5 0 7 -10 5 -22 -5 -34 -79 -68 -146 -68 -43 0 -58 5 -77 25 -30 29 -31
54 -5 104 24 47 128 144 205 190 65 39 197 90 237 90 15 1 34 -6 42 -15z
m1325 -101 c-56 -93 -73 -113 -98 -113 -11 0 -10 4 2 23 9 12 30 46 47 75 21
36 36 52 51 52 21 0 21 0 -2 -37z m-1149 -212 c0 -5 -9 -13 -20 -16 -30 -9
-24 -32 9 -38 32 -7 119 15 162 41 28 16 65 10 54 -9 -8 -13 179 -8 210 5 19
9 19 8 2 -10 -14 -15 -38 -20 -120 -24 -56 -4 -114 -11 -129 -18 -22 -9 -30
-8 -42 3 -11 11 -21 12 -44 4 -16 -5 -54 -9 -83 -7 -48 3 -54 6 -57 26 -2 14
4 29 15 37 21 17 43 19 43 6z m1484 3 c24 -9 19 -43 -6 -53 -13 -5 -26 -7 -30
-4 -8 4 -11 -19 -5 -34 7 -22 116 19 161 61 19 18 32 24 39 17 5 -5 16 -7 23
-4 10 4 13 -2 12 -18 -3 -22 1 -24 37 -22 22 1 61 11 88 22 64 27 60 11 -4
-20 -53 -24 -125 -31 -137 -13 -10 15 -51 10 -88 -9 -17 -9 -53 -21 -80 -28
-27 -6 -59 -18 -71 -25 -28 -18 -33 -17 -33 0 0 8 7 16 15 20 8 3 15 18 15 34
l0 28 -97 -4 c-56 -2 -112 -10 -130 -18 -57 -26 -83 4 -39 45 24 23 63 25 59
3 -2 -9 23 -12 90 -12 73 0 100 4 127 19 19 11 36 20 37 20 1 1 8 -2 17 -5z
m-998 -41 c-10 -10 -19 5 -10 18 6 11 8 11 12 0 2 -7 1 -15 -2 -18z m-739 -53
c21 -16 41 -20 102 -20 246 -1 509 -138 646 -339 38 -56 54 -70 87 -80 22 -7
41 -11 43 -9 12 14 265 399 275 418 13 24 13 24 22 4 8 -16 -17 -62 -138 -254
-80 -129 -147 -236 -149 -238 -5 -5 -59 22 -102 50 -23 15 -68 65 -101 111
-84 116 -167 175 -349 248 -67 27 -96 32 -203 38 -88 5 -135 12 -157 24 -37
19 -37 20 -23 48 13 24 16 24 47 -1z m1177 -250 c9 -23 15 -27 24 -18 9 9 15
9 25 -1 6 -8 7 -11 2 -8 -21 11 -36 -9 -29 -36 3 -15 10 -27 14 -27 20 0 40
13 40 26 0 8 3 14 6 14 9 0 214 -183 214 -191 0 -4 -21 -10 -47 -13 -27 -4
-70 -14 -97 -23 -41 -13 -50 -13 -57 -2 -10 16 -40 91 -74 187 l-22 62 -7 -72
c-4 -40 -9 -92 -12 -114 l-6 -42 -71 2 c-40 0 -85 -3 -101 -7 -25 -7 -28 -6
-24 11 6 20 140 234 166 265 22 25 41 21 56 -13z"/>
<path d="M2056 3054 c-11 -29 -6 -44 14 -44 25 0 36 25 20 45 -16 19 -26 19
-34 -1z"/>
<path d="M1632 2464 l-62 -94 93 0 94 0 -25 88 c-13 48 -27 90 -31 94 -3 4
-34 -36 -69 -88z"/>
<path d="M2936 2598 c-3 -13 -8 -41 -11 -63 -4 -22 -9 -51 -12 -64 -6 -23 -5
-24 57 -19 53 4 67 9 87 32 29 34 30 75 2 110 -17 22 -28 26 -70 26 -42 0 -49
-3 -53 -22z"/>
<path d="M3995 2608 c-4 -14 -25 -140 -25 -151 0 -4 18 -7 41 -7 104 0 163 81
104 144 -19 21 -33 26 -70 26 -28 0 -47 -5 -50 -12z"/>
<path d="M2694 2045 c-14 -35 24 -69 89 -80 l38 -7 -22 36 c-35 59 -92 87
-105 51z"/>
<path d="M1582 1928 c-28 -65 -23 -72 9 -11 32 64 32 63 22 63 -4 0 -18 -24
-31 -52z"/>
<path d="M2064 1896 c-21 -16 -16 -30 9 -20 16 6 32 34 19 34 -5 0 -17 -6 -28
-14z"/>
<path d="M3355 1909 c-4 -6 -4 -13 -1 -16 8 -8 36 5 36 17 0 13 -27 13 -35 -1z"/>
<path d="M3074 1896 c-21 -16 -16 -30 9 -20 16 6 32 34 19 34 -5 0 -17 -6 -28
-14z"/>
<path d="M3530 1900 c0 -5 5 -10 11 -10 5 0 7 5 4 10 -3 6 -8 10 -11 10 -2 0
-4 -4 -4 -10z"/>
<path d="M2781 1588 c-16 -16 -18 -25 -10 -35 27 -32 68 2 52 43 -7 20 -19 17
-42 -8z"/>
</g>
</svg>
